<mxfile host="app.diagrams.net" modified="2022-01-18T13:56:48.092Z" agent="5.0 (Windows NT 10.0; WOW64) AppleWebKit/537.36 (KHTML, like Gecko) Chrome/86.0.4240.198 Safari/537.36" etag="iH1F9jrOgDtLaSiVlrye" version="16.3.0" type="github">
  <diagram id="sAtW_1Yba3rEk9c015G_" name="Page-1">
    <mxGraphModel dx="1054" dy="583" grid="1" gridSize="10" guides="1" tooltips="1" connect="1" arrows="1" fold="1" page="1" pageScale="1" pageWidth="827" pageHeight="1169" math="0" shadow="0">
      <root>
        <mxCell id="0" />
        <mxCell id="1" parent="0" />
        <mxCell id="C0LJLF6avcoZwsLV1pZD-1" value="考研" style="rounded=1;whiteSpace=wrap;html=1;" vertex="1" parent="1">
          <mxGeometry x="50" y="100" width="120" height="60" as="geometry" />
        </mxCell>
        <mxCell id="C0LJLF6avcoZwsLV1pZD-2" value="上班" style="rounded=1;whiteSpace=wrap;html=1;" vertex="1" parent="1">
          <mxGeometry x="200" y="100" width="120" height="60" as="geometry" />
        </mxCell>
        <mxCell id="C0LJLF6avcoZwsLV1pZD-6" value="" style="edgeStyle=orthogonalEdgeStyle;rounded=0;orthogonalLoop=1;jettySize=auto;html=1;" edge="1" parent="1" source="C0LJLF6avcoZwsLV1pZD-3" target="C0LJLF6avcoZwsLV1pZD-5">
          <mxGeometry relative="1" as="geometry" />
        </mxCell>
        <mxCell id="C0LJLF6avcoZwsLV1pZD-3" value="店铺" style="rounded=1;whiteSpace=wrap;html=1;" vertex="1" parent="1">
          <mxGeometry x="354" y="100" width="120" height="60" as="geometry" />
        </mxCell>
        <mxCell id="C0LJLF6avcoZwsLV1pZD-4" value="金融" style="rounded=1;whiteSpace=wrap;html=1;" vertex="1" parent="1">
          <mxGeometry x="510" y="100" width="120" height="60" as="geometry" />
        </mxCell>
        <mxCell id="C0LJLF6avcoZwsLV1pZD-8" value="" style="edgeStyle=orthogonalEdgeStyle;rounded=0;orthogonalLoop=1;jettySize=auto;html=1;" edge="1" parent="1" source="C0LJLF6avcoZwsLV1pZD-5" target="C0LJLF6avcoZwsLV1pZD-7">
          <mxGeometry relative="1" as="geometry" />
        </mxCell>
        <mxCell id="C0LJLF6avcoZwsLV1pZD-5" value="淘宝店铺注册&lt;br&gt;添加" style="whiteSpace=wrap;html=1;rounded=1;fillColor=#d5e8d4;strokeColor=#82b366;" vertex="1" parent="1">
          <mxGeometry x="354" y="200" width="120" height="60" as="geometry" />
        </mxCell>
        <mxCell id="C0LJLF6avcoZwsLV1pZD-7" value="需申请生产许可证" style="whiteSpace=wrap;html=1;rounded=1;fillColor=#d5e8d4;strokeColor=#82b366;" vertex="1" parent="1">
          <mxGeometry x="354" y="290" width="120" height="60" as="geometry" />
        </mxCell>
        <mxCell id="C0LJLF6avcoZwsLV1pZD-11" value="" style="edgeStyle=orthogonalEdgeStyle;rounded=0;orthogonalLoop=1;jettySize=auto;html=1;" edge="1" parent="1" source="C0LJLF6avcoZwsLV1pZD-9" target="C0LJLF6avcoZwsLV1pZD-10">
          <mxGeometry relative="1" as="geometry" />
        </mxCell>
        <mxCell id="C0LJLF6avcoZwsLV1pZD-9" value="公司" style="rounded=1;whiteSpace=wrap;html=1;" vertex="1" parent="1">
          <mxGeometry x="670" y="100" width="120" height="60" as="geometry" />
        </mxCell>
        <mxCell id="C0LJLF6avcoZwsLV1pZD-10" value="去银行确认第三方代缴，浙里办" style="whiteSpace=wrap;html=1;rounded=1;fillColor=#d5e8d4;strokeColor=#82b366;" vertex="1" parent="1">
          <mxGeometry x="670" y="240" width="120" height="60" as="geometry" />
        </mxCell>
      </root>
    </mxGraphModel>
  </diagram>
</mxfile>
